<?xml version="1.0" encoding="UTF-8" standalone="no"?>
<svg
   xmlns:dc="http://purl.org/dc/elements/1.1/"
   xmlns:cc="http://creativecommons.org/ns#"
   xmlns:rdf="http://www.w3.org/1999/02/22-rdf-syntax-ns#"
   xmlns:svg="http://www.w3.org/2000/svg"
   xmlns="http://www.w3.org/2000/svg"
   fill="#000000"
   height="24"
   viewBox="0 0 24 24"
   width="24"
   version="1.1"
   id="svg6">
  <metadata
     id="metadata12">
    <rdf:RDF>
      <cc:Work
         rdf:about="">
        <dc:format>image/svg+xml</dc:format>
        <dc:type
           rdf:resource="http://purl.org/dc/dcmitype/StillImage" />
        <dc:title></dc:title>
      </cc:Work>
    </rdf:RDF>
  </metadata>
  <defs
     id="defs10" />
  <ellipse
     ry="6.4067798"
     rx="7.0677967"
     cy="9.0508471"
     cx="8.9491529"
     id="path4484"
     style="fill:#ffffff;fill-opacity:0.11764706;stroke:none;stroke-width:67.09999847;stroke-linecap:round;stroke-linejoin:round;stroke-miterlimit:4;stroke-dasharray:none;stroke-opacity:1" />
  <path
     d="m 16.759332,14.858134 h -1.001298 l -0.35489,-0.342216 c 1.242116,-1.44491 1.98992,-3.320758 1.98992,-5.3613773 0,-4.5502001 -3.688323,-8.23852373 -8.2385233,-8.23852373 -4.5502001,0 -8.23852373,3.68832363 -8.23852373,8.23852373 0,4.5502003 3.68832363,8.2385233 8.23852373,8.2385233 2.0406193,0 3.9164673,-0.747804 5.3613773,-1.98992 l 0.342216,0.35489 v 1.001298 l 6.337326,6.324651 1.888523,-1.888523 z m -7.6047913,0 c -3.1559884,0 -5.7035934,-2.547605 -5.7035934,-5.7035933 0,-3.1559884 2.547605,-5.7035934 5.7035934,-5.7035934 3.1559883,0 5.7035933,2.547605 5.7035933,5.7035934 0,3.1559883 -2.547605,5.7035933 -5.7035933,5.7035933 z"
     id="path2"
     style="stroke-width:1.26746523;fill:#ffffff" />
  <path
     d="M0 0h24v24H0z"
     fill="none"
     id="path4" />
</svg>
