<?xml version="1.0" encoding="UTF-8" standalone="no"?>
<svg
   xmlns:dc="http://purl.org/dc/elements/1.1/"
   xmlns:cc="http://creativecommons.org/ns#"
   xmlns:rdf="http://www.w3.org/1999/02/22-rdf-syntax-ns#"
   xmlns:svg="http://www.w3.org/2000/svg"
   xmlns="http://www.w3.org/2000/svg"
   width="69"
   height="81"
   viewBox="0 0 18.25625 21.431251"
   version="1.1"
   id="svg8">
  <defs
     id="defs2" />
  <metadata
     id="metadata5">
    <rdf:RDF>
      <cc:Work
         rdf:about="">
        <dc:format>image/svg+xml</dc:format>
        <dc:type
           rdf:resource="http://purl.org/dc/dcmitype/StillImage" />
        <dc:title></dc:title>
      </cc:Work>
    </rdf:RDF>
  </metadata>
  <g
     id="layer1"
     transform="translate(0,-275.56873)">
    <g
       id="flowRoot4485"
       style="font-style:normal;font-weight:normal;font-size:48px;line-height:1.25;font-family:sans-serif;letter-spacing:0px;word-spacing:0px;fill:#000000;fill-opacity:1;stroke:none"
       transform="matrix(0.26458333,0,0,0.26458333,1.5232491,269.32363)"
       aria-label="8">
      <path
         id="path4505"
         style="font-style:normal;font-variant:normal;font-weight:normal;font-stretch:normal;font-size:85.33333588px;font-family:'Californian FB';-inkscape-font-specification:'Californian FB'"
         d="m 44.784506,75.478517 q 0,7.583334 -5.375,12.958334 -4.166667,4.166667 -12.208334,4.166667 -7.333333,0 -11.25,-4.5 -3.25,-3.75 -3.25,-10.250001 0,-4.875 3.166667,-9.291667 1.208333,-1.708333 5.375,-4.625 0.458333,-0.333333 -0.25,-0.666666 -7.541667,-3.541667 -7.541667,-11.250001 0,-7.375 5.208334,-12.541667 3.833333,-3.875 10.916667,-3.875 6.75,0 10.5,3.75 1.541667,1.541667 2.541667,4.125 0.875,2.291667 0.875,4.000001 0,4.958333 -3.333334,8.875 -1.583333,1.875 -6.208333,4.166667 -0.875,0.583333 0.166666,0.958333 3.708334,1.291667 6.458334,3.958333 4.208333,4.083334 4.208333,10.041667 z M 38.451173,49.43685 q 0,-4 -2.958334,-7.083334 -3.083333,-3.166666 -9.75,-3.166666 -2.375,0 -3.208333,0.333333 -1.166667,0.416667 -2.5,2.166667 -1.958334,2.541666 -1.958334,6.833333 0,8.708334 11.666667,11.000001 1.25,0.25 2.791667,-0.416667 1.541667,-0.666667 3.375,-2.5 2.541667,-3.166667 2.541667,-7.166667 z m 1.541667,29.458334 q 0,-5.083333 -3.250001,-8.125 -3.25,-3.041667 -12.083333,-5.958334 -0.75,-0.25 -1.208334,0 -1.958333,0.958334 -4,3.75 -2.166667,2.875001 -2.166667,6.916667 0,2.625 1.125001,5.916667 1.083333,3.125 2.208333,4.416667 2.041667,2.208333 3.875,3 2.291667,1 6.541667,1 4.166667,0 6.25,-2.375 2.708334,-3.166667 2.708334,-8.541667 z" />
    </g>
  </g>
</svg>
