<?xml version="1.0" encoding="UTF-8" standalone="no"?>
<svg
   xmlns:dc="http://purl.org/dc/elements/1.1/"
   xmlns:cc="http://creativecommons.org/ns#"
   xmlns:rdf="http://www.w3.org/1999/02/22-rdf-syntax-ns#"
   xmlns:svg="http://www.w3.org/2000/svg"
   xmlns="http://www.w3.org/2000/svg"
   width="69"
   height="81"
   viewBox="0 0 18.25625 21.431251"
   version="1.1"
   id="svg8">
  <defs
     id="defs2" />
  <metadata
     id="metadata5">
    <rdf:RDF>
      <cc:Work
         rdf:about="">
        <dc:format>image/svg+xml</dc:format>
        <dc:type
           rdf:resource="http://purl.org/dc/dcmitype/StillImage" />
        <dc:title></dc:title>
      </cc:Work>
    </rdf:RDF>
  </metadata>
  <g
     id="layer1"
     transform="translate(0,-275.56873)">
    <g
       id="flowRoot4485"
       style="font-style:normal;font-weight:normal;font-size:48px;line-height:1.25;font-family:sans-serif;letter-spacing:0px;word-spacing:0px;fill:#000000;fill-opacity:1;stroke:none"
       transform="matrix(0.26458333,0,0,0.26458333,1.4681276,269.38427)"
       aria-label="2">
      <path
         id="path4490"
         style="font-style:normal;font-variant:normal;font-weight:normal;font-stretch:normal;font-size:85.33333588px;font-family:'Californian FB';-inkscape-font-specification:'Californian FB'"
         d="m 46.49284,86.311851 q 0,0.208333 -0.5,1.375 -0.708334,1.625 -1.625,3.666667 -0.333334,0.5 -0.708334,0.5 H 12.201172 q -0.708333,0 -0.708333,-1.291667 0,-0.833333 1.458333,-1.791667 10.791667,-7.166666 17.166667,-15.416667 4.416667,-5.791667 6.083334,-10.208333 1.583333,-4.125 1.583333,-9.416667 0,-5.708334 -2.833333,-8.875001 -3.25,-3.708333 -10.208334,-3.708333 -8.25,0 -11.875,4.708333 -0.333334,0.416667 -0.75,0.25 -0.708334,-0.333333 -0.708334,-0.666666 0,-1.291667 2.25,-3.583334 2,-2.041666 4.000001,-3.166666 4.875,-2.791667 11.25,-2.791667 6.583333,0 10.583333,4 3.833334,3.833333 3.833334,10.666667 0,4.583333 -1.875,9.208334 -3.583334,8.791666 -9.125,14.833333 -6.166667,6.750001 -12.458334,11.458334 -0.416667,0.291667 -0.416667,0.541667 0,0.458333 1,0.458333 h 10.250001 q 9.208333,0 13.833333,-1 1.125,-0.25 1.375,-0.25 0.583334,0 0.583334,0.5 z" />
    </g>
  </g>
</svg>
