<?xml version="1.0" encoding="UTF-8" standalone="no"?>
<svg
   xmlns:dc="http://purl.org/dc/elements/1.1/"
   xmlns:cc="http://creativecommons.org/ns#"
   xmlns:rdf="http://www.w3.org/1999/02/22-rdf-syntax-ns#"
   xmlns:svg="http://www.w3.org/2000/svg"
   xmlns="http://www.w3.org/2000/svg"
   width="69"
   height="81"
   viewBox="0 0 18.25625 21.431251"
   version="1.1"
   id="svg8">
  <defs
     id="defs2" />
  <metadata
     id="metadata5">
    <rdf:RDF>
      <cc:Work
         rdf:about="">
        <dc:format>image/svg+xml</dc:format>
        <dc:type
           rdf:resource="http://purl.org/dc/dcmitype/StillImage" />
        <dc:title></dc:title>
      </cc:Work>
    </rdf:RDF>
  </metadata>
  <g
     id="layer1"
     transform="translate(0,-275.56873)">
    <g
       id="flowRoot4485"
       style="font-style:normal;font-weight:normal;font-size:48px;line-height:1.25;font-family:sans-serif;letter-spacing:0px;word-spacing:0px;fill:#000000;fill-opacity:1;stroke:none"
       transform="matrix(0.26458333,0,0,0.26458333,1.3358359,269.47797)"
       aria-label="4">
      <path
         id="path4496"
         style="font-style:normal;font-variant:normal;font-weight:normal;font-stretch:normal;font-size:85.33333588px;font-family:'Californian FB';-inkscape-font-specification:'Californian FB'"
         d="m 49.11784,68.145184 q 0,0.5 -0.416667,1.25 -0.541667,1.708333 -1.875,3.333333 -0.25,0.541667 -0.75,0.541667 -2.583333,-0.291667 -5.541667,-0.291667 -0.708333,0 -0.708333,0.708334 0,0.25 0.166667,7.666667 0.166666,7.375 0.166666,8.041666 0,1.291667 -0.583333,1.625 -0.25,0.166667 -2.541667,1.166667 -2.541667,1.125 -2.833333,1.125 -0.958334,0 -0.958334,-1.125 0,-0.333333 0.375,-9.125 0.416667,-8.791667 0.416667,-9.125 0,-0.875 -0.791667,-0.875 h -22 q -1.4583337,0 -1.4583337,-1.083334 0,-0.708333 0.4166667,-1.291666 1.75,-1.750001 13.666667,-16.958334 6.75,-8.708334 15.208334,-19.208334 0.875,-0.791667 1.625,-0.791667 0.666667,0 0.666667,1.041667 0,0.25 -0.708334,16.333334 -0.666666,16.041667 -0.666666,16.5 0,0.916667 0.625,0.791667 0.416666,0 4.041666,-0.333334 3.666667,-0.375 3.875,-0.375 0.583334,0 0.583334,0.458334 z M 35.159506,44.645183 q 0,-1.208333 -1.125,0.208333 -0.833333,0.833334 -6.916667,8.500001 l -11,13.916667 q -0.458334,0.541666 -0.416667,0.75 0.04167,0.208333 0.583333,0.208333 h 17.416668 q 0.625,0 0.75,-0.208333 0.166666,-0.208334 0.166666,-0.666667 0,-0.458333 0.25,-11.5 0.291667,-11.041667 0.291667,-11.208334 z" />
    </g>
  </g>
</svg>
