<?xml version="1.0" encoding="UTF-8" standalone="no"?>
<svg
   xmlns:dc="http://purl.org/dc/elements/1.1/"
   xmlns:cc="http://creativecommons.org/ns#"
   xmlns:rdf="http://www.w3.org/1999/02/22-rdf-syntax-ns#"
   xmlns:svg="http://www.w3.org/2000/svg"
   xmlns="http://www.w3.org/2000/svg"
   width="69"
   height="81"
   viewBox="0 0 18.25625 21.431251"
   version="1.1"
   id="svg8">
  <defs
     id="defs2" />
  <metadata
     id="metadata5">
    <rdf:RDF>
      <cc:Work
         rdf:about="">
        <dc:format>image/svg+xml</dc:format>
        <dc:type
           rdf:resource="http://purl.org/dc/dcmitype/StillImage" />
        <dc:title></dc:title>
      </cc:Work>
    </rdf:RDF>
  </metadata>
  <g
     id="layer1"
     transform="translate(0,-275.56873)">
    <g
       id="flowRoot4485"
       style="font-style:normal;font-weight:normal;font-size:48px;line-height:1.25;font-family:sans-serif;letter-spacing:0px;word-spacing:0px;fill:#000000;fill-opacity:1;stroke:none"
       transform="matrix(0.26458333,0,0,0.26458333,1.2531536,269.32363)"
       aria-label="9">
      <path
         id="path4508"
         style="font-style:normal;font-variant:normal;font-weight:normal;font-stretch:normal;font-size:85.33333588px;font-family:'Californian FB';-inkscape-font-specification:'Californian FB'"
         d="m 47.159506,57.228517 q 0,10.125 -4.541666,19.041667 -4.500001,8.916667 -11.416667,12.583334 -3.958334,2.125 -5.541667,2.625 -3.208334,1.041667 -8.25,1.041667 -4.875001,0 -4.875001,-1.333334 0,-0.958333 2.875,-0.958333 5.166667,0 9.833334,-1.958334 4.958334,-2.083333 9.708334,-7.583333 4,-4.625 4.958333,-8.375 0.25,-0.958334 0.08333,-1.208334 -0.125,-0.25 -0.666667,0 -2.166667,1.041667 -5.208334,1.958334 -4.375,1.375 -6.916667,1.375 -5.583333,0 -9.75,-4.25 -5.083333,-5.208334 -5.083333,-14.666668 0,-10.416667 5.875,-15.791667 4.375,-4.041667 10.916667,-4.041667 7.791667,0 12.875,5.666667 5.125,5.666667 5.125,15.875001 z m -5.458333,2.958333 q 0,-9.541667 -4.583334,-15.708334 -4.291666,-5.708333 -11.541667,-5.708333 -3.208333,0 -4.5,1.291667 -3.958333,3.791666 -3.958333,10.666667 0,8.5 2.916667,12.958333 1.833333,2.833334 3.208333,3.916667 1.375,1.041667 3.875,1.625 2.208334,0.541667 6.5,0.541667 3.958334,0 7.166667,-2.666667 0.541667,-0.666667 0.666667,-1.458333 0.25,-1.375 0.25,-5.458334 z" />
    </g>
  </g>
</svg>
