<?xml version="1.0" encoding="UTF-8" standalone="no"?>
<svg
   xmlns:dc="http://purl.org/dc/elements/1.1/"
   xmlns:cc="http://creativecommons.org/ns#"
   xmlns:rdf="http://www.w3.org/1999/02/22-rdf-syntax-ns#"
   xmlns:svg="http://www.w3.org/2000/svg"
   xmlns="http://www.w3.org/2000/svg"
   id="svg8"
   version="1.1"
   viewBox="0 0 18.25625 21.431251"
   height="81"
   width="69">
  <defs
     id="defs2" />
  <metadata
     id="metadata5">
    <rdf:RDF>
      <cc:Work
         rdf:about="">
        <dc:format>image/svg+xml</dc:format>
        <dc:type
           rdf:resource="http://purl.org/dc/dcmitype/StillImage" />
        <dc:title></dc:title>
      </cc:Work>
    </rdf:RDF>
  </metadata>
  <g
     transform="translate(0,-275.56873)"
     id="layer1">
    <g
       id="flowRoot4485"
       style="font-style:normal;font-weight:normal;font-size:48px;line-height:1.25;font-family:sans-serif;letter-spacing:0px;word-spacing:0px;fill:#000000;fill-opacity:1;stroke:none"
       transform="matrix(0.26458333,0,0,0.26458333,1.9311484,269.34739)"
       aria-label="5">
      <path
         id="path4487"
         style="font-style:normal;font-variant:normal;font-weight:normal;font-stretch:normal;font-size:85.33333588px;font-family:'Californian FB';-inkscape-font-specification:'Californian FB'"
         d="m 44.701173,36.728516 q 0,0.833334 -0.958333,2.708334 -0.916667,1.875 -1.958334,2.833333 -0.708333,0.666667 -1.375,0.666667 -1.5,0.125 -2.708333,0.125 -5.875,0 -11.916667,-1.416667 -4.083334,-0.958333 -5.5,-1.666667 -0.583334,-0.208333 -0.833334,0.25 -0.666666,1.208334 -2.583333,11.166667 -0.125,0.666667 -0.04167,0.833334 0.08333,0.25 0.583334,0.166666 4.416666,-0.583333 7.083333,-0.583333 4.875,0 8.75,1.916667 3.458334,1.625 5.666667,3.833333 5.375,5.375 5.375,14.333334 0,7.916667 -5.541667,13.833334 -2.291666,2.375 -6.083333,4.416666 -4.291667,2.291667 -11.083334,2.291667 -6.875,0 -10.916667,-2.791667 -0.9583331,-0.666666 -0.9583331,-1.125 0,-1.291666 0.7083331,-1.291666 0,0 1.166667,0.625 2.708333,1.791666 9.208334,1.791666 7.958333,0 12.833333,-4.875 1.625,-1.666666 3.041667,-4.958333 1.375,-3.166667 1.375,-7.166667 0,-7.166667 -5.791667,-12.041667 -2.166666,-1.791667 -4.875,-2.791667 -3.666667,-1.375 -7.75,-1.375 -0.416667,0 -2.25,0.08333 -1.833334,0.08333 -2.125,0.08333 -1.166667,0 -1.166667,-1.083334 0,-1.291666 3.916667,-18.958333 0.25,-1.083334 1.625,-0.958334 13.125,1.208334 20.708334,1.208334 1.875,0 2.75,-0.25 1.416667,-0.416667 1.125,-0.416667 0.5,0 0.5,0.583333 z" />
    </g>
  </g>
</svg>
