<?xml version="1.0" encoding="UTF-8" standalone="no"?>
<svg
   xmlns:dc="http://purl.org/dc/elements/1.1/"
   xmlns:cc="http://creativecommons.org/ns#"
   xmlns:rdf="http://www.w3.org/1999/02/22-rdf-syntax-ns#"
   xmlns:svg="http://www.w3.org/2000/svg"
   xmlns="http://www.w3.org/2000/svg"
   id="svg8"
   version="1.1"
   viewBox="0 0 18.25625 21.431251"
   height="81"
   width="69">
  <defs
     id="defs2" />
  <metadata
     id="metadata5">
    <rdf:RDF>
      <cc:Work
         rdf:about="">
        <dc:format>image/svg+xml</dc:format>
        <dc:type
           rdf:resource="http://purl.org/dc/dcmitype/StillImage" />
        <dc:title></dc:title>
      </cc:Work>
    </rdf:RDF>
  </metadata>
  <g
     transform="translate(0,-275.56873)"
     id="layer1">
    <g
       id="flowRoot4485"
       style="font-style:normal;font-weight:normal;font-size:48px;line-height:1.25;font-family:sans-serif;letter-spacing:0px;word-spacing:0px;fill:#000000;fill-opacity:1;stroke:none"
       transform="matrix(0.26458333,0,0,0.26458333,1.3523722,269.37875)"
       aria-label="0">
      <path
         id="path4493"
         style="font-style:normal;font-variant:normal;font-weight:normal;font-stretch:normal;font-size:85.33333588px;font-family:'Californian FB';-inkscape-font-specification:'Californian FB'"
         d="m 48.034506,63.603517 q 0,5.583333 -0.5,8.541667 -0.583333,3.375 -2.5,7.916667 -2.916666,7.041667 -7.416667,9.833333 -2.625,1.625 -3.625,1.958334 -1.416666,0.5 -4.25,0.5 -4.083333,0 -6.375,-0.916667 -0.583333,-0.25 -4.291667,-2.833333 -2.875,-2 -5.625,-8.083334 -2.708333,-6.083333 -2.708333,-15.291667 0,-13.25 4.875,-21.833334 2.25,-4 6.208333,-5.958333 4,-2.000001 7.916667,-2.000001 7.166667,0 13.000001,7.250001 5.291666,6.625 5.291666,20.916667 z m -5.125,4.458333 q 0,-10.375 -2.291666,-16.833333 -2.500001,-7.000001 -5.208334,-9.625001 -3.25,-3.166666 -9.125,-3.166666 -3.75,0 -5.916667,2.625 -2.416667,2.958333 -3.333334,8.041667 -0.833333,4.791666 -0.833333,9.291667 0,3.541666 0.625,9.083333 0.708334,5.875 1.5,8.5 3.25,10.625001 6.833334,12.333334 3.625,1.666667 6.75,1.666667 4.125,0 6.541667,-2.666667 4.458333,-4.791667 4.458333,-19.250001 z" />
    </g>
  </g>
</svg>
