<?xml version="1.0" encoding="UTF-8" standalone="no"?>
<svg
   xmlns:dc="http://purl.org/dc/elements/1.1/"
   xmlns:cc="http://creativecommons.org/ns#"
   xmlns:rdf="http://www.w3.org/1999/02/22-rdf-syntax-ns#"
   xmlns:svg="http://www.w3.org/2000/svg"
   xmlns="http://www.w3.org/2000/svg"
   width="69"
   height="81"
   viewBox="0 0 18.25625 21.431251"
   version="1.1"
   id="svg8">
  <defs
     id="defs2" />
  <metadata
     id="metadata5">
    <rdf:RDF>
      <cc:Work
         rdf:about="">
        <dc:format>image/svg+xml</dc:format>
        <dc:type
           rdf:resource="http://purl.org/dc/dcmitype/StillImage" />
        <dc:title></dc:title>
      </cc:Work>
    </rdf:RDF>
  </metadata>
  <g
     id="layer1"
     transform="translate(0,-275.56873)">
    <g
       id="flowRoot4485"
       style="font-style:normal;font-weight:normal;font-size:48px;line-height:1.25;font-family:sans-serif;letter-spacing:0px;word-spacing:0px;fill:#000000;fill-opacity:1;stroke:none"
       transform="matrix(0.26458333,0,0,0.26458333,2.0744644,269.32363)"
       aria-label="3">
      <path
         id="path4493"
         style="font-style:normal;font-variant:normal;font-weight:normal;font-stretch:normal;font-size:85.33333588px;font-family:'Californian FB';-inkscape-font-specification:'Californian FB'"
         d="m 42.409506,75.478517 q 0,7.208334 -7.625,13.208334 -4.833333,3.833334 -14.333334,3.833334 -5.958333,0 -8.958333,-2.375001 -0.583334,-0.458333 -0.583334,-0.833333 0,-0.25 0.291667,-0.583333 0.291667,-0.375 0.458333,-0.375 -0.125,0 1.041667,0.666666 2.041667,1.208334 7.166667,1.208334 2.541667,0 5.333333,-0.958334 2.833334,-0.958333 4.833334,-2.541666 3.208333,-2.541667 4.291667,-4.5 1.416666,-2.416667 1.416666,-6.500001 0,-4.541666 -4.875,-8.375 -2.208333,-1.75 -9.708333,-3.333333 -1.208334,-0.25 -1.208334,-1.083334 0,-0.541666 1.458334,-1.041666 4.125,-1.416667 7.75,-4.666667 2.833333,-2.541667 2.833333,-8.375 0,-3.541667 -2.125,-6.083334 -1.958333,-2.291667 -6.416667,-2.291667 -5.166666,0 -8.791667,2.666667 -1.041666,0.75 -1.208333,0.75 -0.666667,0 -0.666667,-0.958333 0,-0.333334 0.416667,-0.833334 2.375,-2.791666 6.083334,-4.708333 3.333333,-1.708334 9.291667,-1.708334 3.541666,0 6.583333,2.750001 3.291667,3 3.291667,7.666666 0,5.208334 -4.75,10.000001 -3.5,3.5 -5.208334,4.583333 -1.208333,0.791667 0.25,1.041667 5.916667,0.958333 9.541667,4.083333 4.125,3.541667 4.125,9.666667 z" />
    </g>
  </g>
</svg>
